<svg width="64" height="27" viewBox="0 0 64 27" fill="none" xmlns="http://www.w3.org/2000/svg">
<path d="M1.95452 18.4387L0 16.4627V10.5373L1.95452 8.5626H7.8168L9.77133 10.5373V12.0193L5.46037 16.5875H9.77133V17.946L9.28237 18.44H1.95452V18.4387ZM1.95452 11.2289V15.7724L2.76091 16.5875L7.8168 11.2289L7.01042 10.4138H2.76091L1.95452 11.2289Z" fill="white"/>
<path d="M19.0537 18.4387V11.2289L18.2473 10.4138H14.4855L13.6791 11.2289V18.4387H11.7246V10.5373L13.6791 8.5626H19.0537L21.0082 10.5373V18.4387H19.0537Z" fill="white"/>
<path d="M31.7549 16.5862V18.4374H24.9147L22.9602 16.4627V10.5373L24.9147 8.5626H31.2659L31.7549 9.0566V10.4151H25.7211L24.9147 11.2302V15.7737L25.7211 16.5888H31.7549V16.5862Z" fill="white"/>
<path d="M41.2817 8.5613L43.2363 10.536V16.4614L41.2817 18.4361H35.4195L33.4649 16.4614V10.536L35.4195 8.5613H41.2817ZM41.2817 15.7711V11.2276L40.4754 10.4125H36.2246L35.4182 11.2276V15.7711L36.2246 16.5862H40.4754L41.2817 15.7711Z" fill="white"/>
<path d="M47.144 8.5613H52.5186V12.018H50.5641V10.4125H47.9504L47.144 11.2276V18.4374H45.1895V10.536L47.144 8.5613Z" fill="white"/>
<path d="M56.1819 18.4387L54.2274 16.464V10.5386L56.1819 8.5639H62.0442L63.9987 10.5386V12.0206L59.6878 16.5888H63.9987V17.9473L63.5098 18.4413H56.1819V18.4387ZM56.1819 11.2289V15.7724L56.9883 16.5875L62.0442 11.2289L61.2378 10.4138H56.987L56.1806 11.2289H56.1819Z" fill="white"/>
<path d="M62.0442 20.4147V23.8337L61.2378 24.6488H2.75962L1.95324 23.8337V20.4147H0V24.524L1.95324 26.5H62.0429L63.9974 24.524V20.4147H62.0429H62.0442Z" fill="#1DE897"/>
<path d="M1.9558 6.5853V3.1663L2.76219 2.3512H61.2404L62.0468 3.1663V6.5853H64V2.476L62.0468 0.5H1.9558L0 2.476V6.5853H1.9558Z" fill="#1DE897"/>
<path d="M47.1427 3.594H45.1895V4.8355H47.1427V3.594Z" fill="#1DE897"/>
<path d="M47.1427 6.0783H45.1895V7.3198H47.1427V6.0783Z" fill="#1DE897"/>
<path d="M47.1427 19.6802H45.1895V20.9217H47.1427V19.6802Z" fill="#1DE897"/>
<path d="M47.1427 22.1632H45.1895V23.4047H47.1427V22.1632Z" fill="#1DE897"/>
</svg>
